<?xml version="1.0" encoding="UTF-8"?>
<svg version="1.1" xmlns="http://www.w3.org/2000/svg" width="1399" height="220">
<path d="M0 0 C3.37650738 2.11432151 6.17982979 4.53546219 9.05859375 7.2890625 C9.38859375 4.6490625 9.71859375 2.0090625 10.05859375 -0.7109375 C17.31859375 -0.7109375 24.57859375 -0.7109375 32.05859375 -0.7109375 C32.1265896 12.60718253 32.18153648 25.92518572 32.21403027 39.24344063 C32.22963199 45.42879859 32.25076928 51.6140308 32.28491211 57.79931641 C32.31770221 63.7775075 32.335488 69.75557824 32.34322548 75.73385239 C32.34873388 78.00540941 32.35948965 80.27696046 32.37578392 82.54846573 C32.60385768 115.68541184 32.60385768 115.68541184 23.05859375 127.2890625 C11.61707665 138.85294877 -2.93548041 142.5226457 -18.71289062 142.61132812 C-20.00517578 142.60810547 -21.29746094 142.60488281 -22.62890625 142.6015625 C-23.90185547 142.61767578 -25.17480469 142.63378906 -26.48632812 142.65039062 C-35.33045727 142.65488688 -43.41729623 141.7044519 -51.94140625 139.2890625 C-52.94140625 138.2890625 -52.94140625 138.2890625 -53.05493164 136.43139648 C-53.04969482 135.64063721 -53.04445801 134.84987793 -53.0390625 134.03515625 C-53.03583984 133.18115234 -53.03261719 132.32714844 -53.02929688 131.44726562 C-53.02091797 130.54943359 -53.01253906 129.65160156 -53.00390625 128.7265625 C-52.99939453 127.82486328 -52.99488281 126.92316406 -52.99023438 125.99414062 C-52.9784085 123.75904936 -52.96192845 121.52408813 -52.94140625 119.2890625 C-51.5452756 119.43202141 -50.14951317 119.57857808 -48.75390625 119.7265625 C-47.58794922 119.84837891 -47.58794922 119.84837891 -46.3984375 119.97265625 C-43.94140625 120.2890625 -43.94140625 120.2890625 -41.4909668 120.81152344 C-36.63022967 121.72195165 -31.68496214 121.51606049 -26.75390625 121.5390625 C-25.66787109 121.5596875 -24.58183594 121.5803125 -23.46289062 121.6015625 C-14.00265105 121.6470171 -5.42875697 120.64612612 1.65625 113.89453125 C7.86631526 106.78495793 7.20052092 98.15162596 7.05859375 89.2890625 C6.35476563 89.69898438 5.6509375 90.10890625 4.92578125 90.53125 C-6.70387861 96.87746126 -18.05848321 98.8259105 -30.94140625 95.2890625 C-40.37869503 92.28288969 -47.38070383 86.22795954 -52.625 77.8828125 C-60.80237586 61.77071289 -60.50091392 43.36994542 -55.94140625 26.2890625 C-51.87568079 15.17347333 -45.21486042 6.14081275 -34.56640625 0.7265625 C-24.18250127 -4.00924946 -10.56509775 -5.09028973 0 0 Z M-28.19140625 24.7265625 C-34.41663247 33.68156706 -35.15853795 45.87305075 -33.4375 56.359375 C-31.68664151 64.34328971 -29.29589237 70.4936574 -22.94140625 75.7890625 C-16.8504306 78.74829468 -9.30811789 78.4278032 -3.01953125 76.30078125 C1.32271997 74.22600737 5.09110001 72.13834315 8.05859375 68.2890625 C8.70457892 65.2600605 8.71437071 62.26505632 8.73046875 59.17578125 C8.75043915 57.84411674 8.75043915 57.84411674 8.77081299 56.48554993 C8.79104195 54.60869619 8.80044776 52.73169896 8.79980469 50.85473633 C8.80853708 47.99511959 8.88111298 45.14172334 8.95703125 42.28320312 C9.34229287 33.00506311 9.34229287 33.00506311 6.34106445 24.50415039 C4.30870565 22.69716763 2.49671176 21.47192047 0.05859375 20.2890625 C-1.03453125 19.6496875 -2.12765625 19.0103125 -3.25390625 18.3515625 C-13.36300504 15.43877132 -21.27625045 16.72932853 -28.19140625 24.7265625 Z " fill="#FFFFFF" transform="translate(358.94140625,65.7109375)"/>
<path d="M0 0 C72.40318907 0 72.40318907 0 86.875 13.375 C94.24389132 21.26404836 96.55407888 31.21331302 96.30078125 41.78515625 C95.14614857 54.12623022 90.17953057 61.81497746 80.94140625 69.7734375 C70.68274131 77.41410666 57.29209384 79.85563247 44.8125 80.625 C44.12091797 80.6765625 43.42933594 80.728125 42.71679688 80.78125 C36.56824006 81.16377686 31.33088614 80.5755351 25 80 C25 97.16 25 114.32 25 132 C16.75 132 8.5 132 0 132 C0 88.44 0 44.88 0 0 Z M25 21 C25 33.54 25 46.08 25 59 C30.630625 59.0928125 30.630625 59.0928125 36.375 59.1875 C37.53692871 59.21481201 38.69885742 59.24212402 39.89599609 59.27026367 C49.11541622 59.34301151 57.71623932 58.06980057 65 52 C69.50916218 46.02840684 70.69020732 41.32874677 70 34 C68.0909207 28.67467353 65.39447009 25.61496076 60.26245117 23.17333984 C53.05956016 20.42649663 46.05539565 20.66171664 38.4375 20.8125 C34.003125 20.874375 29.56875 20.93625 25 21 Z " fill="#FFFFFF" transform="translate(15,29)"/>
<path d="M0 0 C7.92 0 15.84 0 24 0 C24.33 18.15 24.66 36.3 25 55 C27.64 52.69 30.28 50.38 33 48 C42.80484981 42.37663025 55.33876991 42.37073004 66.26953125 44.6953125 C74.27026272 47.6203111 80.14940313 52.79441512 83.91995239 60.43022156 C87.828664 69.73029569 87.26819939 80.05109146 87.1953125 89.94921875 C87.19157333 91.45807201 87.18873064 92.96692773 87.18673706 94.4757843 C87.17917162 98.40976902 87.15958582 102.34360149 87.1373291 106.27752686 C87.11671617 110.30674176 87.10770262 114.33598173 87.09765625 118.36523438 C87.07633175 126.24356658 87.04120923 134.12174669 87 142 C79.08 142 71.16 142 63 142 C62.970271 139.25345093 62.970271 139.25345093 62.93994141 136.45141602 C62.87191584 130.37247068 62.7951224 124.29368443 62.71247292 118.214921 C62.66272406 114.53272259 62.61639397 110.85054992 62.578125 107.16821289 C62.54099936 103.60839375 62.4945694 100.04880204 62.44193649 96.48917961 C62.41463837 94.48371249 62.39674717 92.47812434 62.37905884 90.47254944 C62.49737974 78.46030498 62.49737974 78.46030498 57.5 68 C52.2241999 63.77935992 46.5359397 64.44130726 40 65 C33.89959643 66.86885379 28.53404221 70.69893669 25 76 C24.67007391 78.97250877 24.67007391 78.97250877 24.68115234 82.39916992 C24.67110672 83.04334366 24.6610611 83.6875174 24.65071106 84.35121155 C24.61985295 86.47762165 24.60283707 88.6039057 24.5859375 90.73046875 C24.56722791 92.20592841 24.54765466 93.68137735 24.5272522 95.15681458 C24.47590264 99.03817425 24.43629219 102.91956863 24.39910889 106.80108643 C24.35908684 110.76266077 24.30798632 114.7240904 24.2578125 118.68554688 C24.16101973 126.45693957 24.07764983 134.22838814 24 142 C16.08 142 8.16 142 0 142 C0 95.14 0 48.28 0 0 Z " fill="#FFFFFF" transform="translate(997,19)"/>
<path d="M0 0 C7.92 0 15.84 0 24 0 C24.33 18.15 24.66 36.3 25 55 C27.64 52.69 30.28 50.38 33 48 C42.80484981 42.37663025 55.33876991 42.37073004 66.26953125 44.6953125 C74.27026272 47.6203111 80.14940313 52.79441512 83.91995239 60.43022156 C87.828664 69.73029569 87.26819939 80.05109146 87.1953125 89.94921875 C87.19157333 91.45807201 87.18873064 92.96692773 87.18673706 94.4757843 C87.17917162 98.40976902 87.15958582 102.34360149 87.1373291 106.27752686 C87.11671617 110.30674176 87.10770262 114.33598173 87.09765625 118.36523438 C87.07633175 126.24356658 87.04120923 134.12174669 87 142 C79.08 142 71.16 142 63 142 C62.970271 139.25345093 62.970271 139.25345093 62.93994141 136.45141602 C62.87191584 130.37247068 62.7951224 124.29368443 62.71247292 118.214921 C62.66272406 114.53272259 62.61639397 110.85054992 62.578125 107.16821289 C62.54099936 103.60839375 62.4945694 100.04880204 62.44193649 96.48917961 C62.41463837 94.48371249 62.39674717 92.47812434 62.37905884 90.47254944 C62.49737974 78.46030498 62.49737974 78.46030498 57.5 68 C52.2241999 63.77935992 46.5359397 64.44130726 40 65 C33.89959643 66.86885379 28.53404221 70.69893669 25 76 C24.67007391 78.97250877 24.67007391 78.97250877 24.68115234 82.39916992 C24.67110672 83.04334366 24.6610611 83.6875174 24.65071106 84.35121155 C24.61985295 86.47762165 24.60283707 88.6039057 24.5859375 90.73046875 C24.56722791 92.20592841 24.54765466 93.68137735 24.5272522 95.15681458 C24.47590264 99.03817425 24.43629219 102.91956863 24.39910889 106.80108643 C24.35908684 110.76266077 24.30798632 114.7240904 24.2578125 118.68554688 C24.16101973 126.45693957 24.07764983 134.22838814 24 142 C16.08 142 8.16 142 0 142 C0 95.14 0 48.28 0 0 Z " fill="#FFFFFF" transform="translate(595,19)"/>
<path d="M0 0 C6.50989504 5.49358231 10.79307869 10.72893105 12.5625 19.1875 C13.02089869 24.7304201 13.05207762 30.2572459 13.07421875 35.81640625 C13.09108934 37.41781469 13.10924274 39.01921009 13.12861633 40.62059021 C13.17586447 44.80766724 13.20583591 48.99469134 13.23205566 53.1819458 C13.26198922 57.46580453 13.30847517 61.74948131 13.35351562 66.03320312 C13.43926185 74.41789384 13.50520121 82.80256658 13.5625 91.1875 C6.3025 91.1875 -0.9575 91.1875 -8.4375 91.1875 C-9.0975 88.2175 -9.7575 85.2475 -10.4375 82.1875 C-11.38625 83.095 -12.335 84.0025 -13.3125 84.9375 C-21.40725411 91.81316463 -31.07817262 93.71586197 -41.484375 92.96875 C-50.66009214 91.75774165 -58.39324989 88.66741588 -64.15234375 81.17578125 C-69.67992735 72.62398777 -70.48997464 64.24568545 -69.4375 54.1875 C-67.79899351 46.98388863 -64.13246269 40.91138557 -58.4375 36.1875 C-48.81541676 30.39911703 -41.65078973 29.00658256 -30.625 29 C-29.55701172 28.98775391 -28.48902344 28.97550781 -27.38867188 28.96289062 C-21.67071159 28.95228216 -16.82996472 29.24128948 -11.4375 31.1875 C-12.56402046 22.81779656 -12.56402046 22.81779656 -17.4375 16.1875 C-22.75482597 13.45211274 -26.99413091 12.67178076 -32.9375 12.75 C-33.71561035 12.75394775 -34.4937207 12.75789551 -35.29541016 12.76196289 C-43.10312674 12.95179445 -50.02715462 14.81580848 -57.4375 17.1875 C-58.7575 17.5175 -60.0775 17.8475 -61.4375 18.1875 C-61.4375 11.9175 -61.4375 5.6475 -61.4375 -0.8125 C-43.73708643 -9.37721624 -16.85587628 -11.68632314 0 0 Z M-42.75 53.4375 C-44.84643453 56.85391183 -45.36721664 59.18134851 -45.4375 63.1875 C-43.79515662 67.84080623 -41.82060751 70.86176949 -37.4375 73.1875 C-29.12545874 74.50316333 -22.3498573 72.94600683 -15.4375 68.1875 C-13.07821789 66.55738992 -13.07821789 66.55738992 -11.4375 64.1875 C-10.95425794 60.6839365 -10.95425794 60.6839365 -11.1875 56.9375 C-11.24164063 55.04257813 -11.24164063 55.04257813 -11.296875 53.109375 C-11.34328125 52.14515625 -11.3896875 51.1809375 -11.4375 50.1875 C-16.40941757 48.2128935 -20.67463424 47.85187669 -25.9375 47.875 C-27.03771484 47.85083008 -27.03771484 47.85083008 -28.16015625 47.82617188 C-34.15413135 47.82081054 -38.34199779 49.14863298 -42.75 53.4375 Z " fill="#FFFFFF" transform="translate(480.4375,69.8125)"/>
<path d="M0 0 C6.50989504 5.49358231 10.79307869 10.72893105 12.5625 19.1875 C13.02089869 24.7304201 13.05207762 30.2572459 13.07421875 35.81640625 C13.09108934 37.41781469 13.10924274 39.01921009 13.12861633 40.62059021 C13.17586447 44.80766724 13.20583591 48.99469134 13.23205566 53.1819458 C13.26198922 57.46580453 13.30847517 61.74948131 13.35351562 66.03320312 C13.43926185 74.41789384 13.50520121 82.80256658 13.5625 91.1875 C6.3025 91.1875 -0.9575 91.1875 -8.4375 91.1875 C-9.0975 88.2175 -9.7575 85.2475 -10.4375 82.1875 C-11.38625 83.095 -12.335 84.0025 -13.3125 84.9375 C-21.40725411 91.81316463 -31.07817262 93.71586197 -41.484375 92.96875 C-50.66009214 91.75774165 -58.39324989 88.66741588 -64.15234375 81.17578125 C-69.67992735 72.62398777 -70.48997464 64.24568545 -69.4375 54.1875 C-67.79899351 46.98388863 -64.13246269 40.91138557 -58.4375 36.1875 C-48.81541676 30.39911703 -41.65078973 29.00658256 -30.625 29 C-29.55701172 28.98775391 -28.48902344 28.97550781 -27.38867188 28.96289062 C-21.67071159 28.95228216 -16.82996472 29.24128948 -11.4375 31.1875 C-12.56402046 22.81779656 -12.56402046 22.81779656 -17.4375 16.1875 C-22.75482597 13.45211274 -26.99413091 12.67178076 -32.9375 12.75 C-33.71561035 12.75394775 -34.4937207 12.75789551 -35.29541016 12.76196289 C-43.10312674 12.95179445 -50.02715462 14.81580848 -57.4375 17.1875 C-58.7575 17.5175 -60.0775 17.8475 -61.4375 18.1875 C-61.4375 11.9175 -61.4375 5.6475 -61.4375 -0.8125 C-43.73708643 -9.37721624 -16.85587628 -11.68632314 0 0 Z M-42.75 53.4375 C-44.84643453 56.85391183 -45.36721664 59.18134851 -45.4375 63.1875 C-43.79515662 67.84080623 -41.82060751 70.86176949 -37.4375 73.1875 C-29.12545874 74.50316333 -22.3498573 72.94600683 -15.4375 68.1875 C-13.07821789 66.55738992 -13.07821789 66.55738992 -11.4375 64.1875 C-10.95425794 60.6839365 -10.95425794 60.6839365 -11.1875 56.9375 C-11.24164063 55.04257813 -11.24164063 55.04257813 -11.296875 53.109375 C-11.34328125 52.14515625 -11.3896875 51.1809375 -11.4375 50.1875 C-16.40941757 48.2128935 -20.67463424 47.85187669 -25.9375 47.875 C-27.03771484 47.85083008 -27.03771484 47.85083008 -28.16015625 47.82617188 C-34.15413135 47.82081054 -38.34199779 49.14863298 -42.75 53.4375 Z " fill="#FFFFFF" transform="translate(267.4375,69.8125)"/>
<path d="M0 0 C11.58771602 8.31896679 16.69962392 18.19774354 19 32 C19 38.93 19 45.86 19 53 C-1.46 53 -21.92 53 -43 53 C-38.89142036 64.29859402 -36.92972047 67.94486958 -27 73 C-16.25350212 76.31915087 -2.21576854 74.74006183 8.40625 71.65625 C11 71 11 71 16 71 C16 77.27 16 83.54 16 90 C-3.14145533 97.17804575 -25.88037187 98.80192228 -45.0625 90.6015625 C-55.95408238 84.66333274 -62.98314146 74.91160261 -66.4765625 63.13671875 C-70.44319137 46.94458447 -68.2124687 29.07669177 -59.65625 14.75 C-46.89810645 -3.39491527 -20.17411461 -11.24804895 0 0 Z M-37.1875 21.25 C-39.65408758 24.99240874 -42 29.42097055 -42 34 C-30.12 34 -18.24 34 -6 34 C-6.98660715 25.12053567 -7.40306972 22.41708377 -13.5 16.625 C-22.48585244 12.45299708 -30.4462086 14.31610027 -37.1875 21.25 Z " fill="#FFFFFF" transform="translate(871,67)"/>
<path d="M0 0 C11.58771602 8.31896679 16.69962392 18.19774354 19 32 C19 38.93 19 45.86 19 53 C-1.46 53 -21.92 53 -43 53 C-38.89142036 64.29859402 -36.92972047 67.94486958 -27 73 C-16.25350212 76.31915087 -2.21576854 74.74006183 8.40625 71.65625 C11 71 11 71 16 71 C16 77.27 16 83.54 16 90 C-3.14145533 97.17804575 -25.88037187 98.80192228 -45.0625 90.6015625 C-55.95408238 84.66333274 -62.98314146 74.91160261 -66.4765625 63.13671875 C-70.44319137 46.94458447 -68.2124687 29.07669177 -59.65625 14.75 C-46.89810645 -3.39491527 -20.17411461 -11.24804895 0 0 Z M-37.1875 21.25 C-39.65408758 24.99240874 -42 29.42097055 -42 34 C-30.12 34 -18.24 34 -6 34 C-6.98660715 25.12053567 -7.40306972 22.41708377 -13.5 16.625 C-22.48585244 12.45299708 -30.4462086 14.31610027 -37.1875 21.25 Z " fill="#FFFFFF" transform="translate(769,67)"/>
<path d="M0 0 C4.95 0 9.9 0 15 0 C16.06647544 2.4884427 17.13294933 4.97688605 18.19941711 7.46533203 C19.1611338 9.70932037 20.12287575 11.95329788 21.0846405 14.19726562 C23.50349136 19.84097075 25.92214675 25.48475917 28.33983707 31.12896156 C29.7225164 34.35686572 31.10535709 37.58470073 32.48828125 40.8125 C32.7649935 41.45836437 33.04170574 42.10422874 33.32680321 42.76966476 C36.99442301 51.32932302 40.67063852 59.88523415 44.35546875 68.4375 C45.55094171 71.21533852 46.74614674 73.99329212 47.94122314 76.77130127 C48.67556373 78.47650158 49.41099629 80.18123213 50.14764404 81.88543701 C53.89412196 90.55338804 57.55032615 99.2465582 60.99609375 108.0390625 C61.29951187 108.80922699 61.60292999 109.57939148 61.9155426 110.37289429 C64 115.75542089 64 115.75542089 64 118 C64.66 118 65.32 118 66 118 C66.36222656 116.83597656 66.72445313 115.67195313 67.09765625 114.47265625 C69.49097321 107.30939323 72.50902761 100.39355711 75.4375 93.4375 C76.09109903 91.87808057 76.74432751 90.31850578 77.3972168 88.75878906 C78.82123283 85.35740762 80.24669185 81.95663547 81.67285156 78.55615234 C85.47176796 69.49235186 89.24576755 60.418147 93.02346802 51.3454895 C94.27171774 48.34793477 95.52039412 45.35055826 96.76928711 42.35327148 C97.16815628 41.39593613 97.56702545 40.43860077 97.97798157 39.45225525 C98.77088573 37.54967515 99.5640842 35.64721767 100.35758972 33.74488831 C102.51093669 28.58114319 104.65690851 23.41445741 106.79443359 18.24414062 C107.25375778 17.13544617 107.71308197 16.02675171 108.18632507 14.88446045 C109.07604793 12.73657267 109.96382205 10.5878764 110.84944153 8.43829346 C111.2474144 7.47864685 111.64538727 6.51900024 112.05541992 5.53027344 C112.58349495 4.25189606 112.58349495 4.25189606 113.12223816 2.94769287 C114 1 114 1 115 0 C119.95 0 124.9 0 130 0 C130 43.23 130 86.46 130 131 C126.7 131 123.4 131 120 131 C120 92.06 120 53.12 120 13 C107.13766096 42.29836568 107.13766096 42.29836568 94.82223511 71.81039429 C93.74958841 74.46839381 92.67047045 77.12370037 91.59008789 79.77856445 C90.10868078 83.41966895 88.62915144 87.06152525 87.15136719 90.70410156 C84.07311113 98.2870546 80.97369483 105.86129213 77.86361694 113.4312439 C76.95677934 115.64053062 76.05313407 117.85110442 75.1496582 120.06176758 C74.60907018 121.37849331 74.0683097 122.69514825 73.52734375 124.01171875 C72.82726196 125.72041138 72.82726196 125.72041138 72.11303711 127.46362305 C71 130 71 130 70 131 C68.31391034 131.07205511 66.62499341 131.08386068 64.9375 131.0625 C64.01839844 131.05347656 63.09929687 131.04445312 62.15234375 131.03515625 C61.44207031 131.02355469 60.73179688 131.01195312 60 131 C57.33105179 124.79264524 54.66475268 118.58415698 52 112.375 C51.59428772 111.42985535 51.18857544 110.48471069 50.77056885 109.51092529 C45.40690649 97.01099196 40.09468031 84.49124386 34.84500122 71.9430542 C22.57886138 42.17529108 22.57886138 42.17529108 9 13 C9 51.94 9 90.88 9 131 C6.03 131 3.06 131 0 131 C0 87.77 0 44.54 0 0 Z " fill="#FFFFFF" transform="translate(1154,29)"/>
<path d="M0 0 C0 6.93 0 13.86 0 21 C-2.59875 20.34 -5.1975 19.68 -7.875 19 C-14.53793445 17.44106196 -20.96663702 16.59091197 -27.8125 16.5625 C-28.55806152 16.55283203 -29.30362305 16.54316406 -30.07177734 16.53320312 C-34.51657634 16.6023196 -37.50791038 17.1917226 -41 20 C-42.25329784 22.85289698 -42.25329784 22.85289698 -42 26 C-39.27738177 30.25530355 -37.08724415 31.72316398 -32.25 33 C-31.10789062 33.32097656 -29.96578125 33.64195313 -28.7890625 33.97265625 C-27.53867187 34.31167969 -26.28828125 34.65070313 -25 35 C-4.06789208 40.8818726 -4.06789208 40.8818726 2.0546875 50.9375 C5.27179274 57.9566387 5.0109157 67.35281389 3 74.6875 C-0.23738866 82.98424953 -6.56755669 88.53865174 -14.57421875 92.07421875 C-30.23242748 98.05005686 -48.20379186 96.87668171 -64 92 C-64.66 91.67 -65.32 91.34 -66 91 C-66 84.73 -66 78.46 -66 72 C-58 73 -58 73 -55.1796875 73.54296875 C-50.49641255 74.21611761 -45.85094784 74.26505072 -41.125 74.3125 C-40.16980469 74.34150391 -39.21460938 74.37050781 -38.23046875 74.40039062 C-32.18656998 74.45427998 -26.85793403 73.91920667 -22 70 C-20.42130641 66.61658971 -20.42130641 66.61658971 -21 63 C-25.8356605 56.03225282 -34.54979773 55.20638481 -42.29882812 53.12695312 C-51.34517521 50.56079736 -58.72397995 47.11695392 -64 39 C-67.16162601 30.98138332 -67.3572061 21.79205814 -64.5 13.625 C-60.84331796 5.82407833 -54.98593908 0.8630655 -47.078125 -2.30859375 C-32.28408643 -7.23067049 -14.53651675 -4.51619938 0 0 Z " fill="#FFFFFF" transform="translate(973,67)"/>
<path d="M0 0 C7.92 0 15.84 0 24 0 C24 8.58 24 17.16 24 26 C33.24 26 42.48 26 52 26 C52 32.6 52 39.2 52 46 C42.76 46 33.52 46 24 46 C24.09704005 52.72640751 24.19983905 59.45221416 24.31738281 66.17822266 C24.35561379 68.46527772 24.39047685 70.75239171 24.421875 73.03955078 C24.46765291 76.33126857 24.52562711 79.6225828 24.5859375 82.9140625 C24.59748871 83.93303619 24.60903992 84.95200989 24.62094116 86.00186157 C24.72456371 91.01119492 24.90800791 95.34949399 27 100 C30.37789872 102.820303 34.68513263 102.26053439 38.875 102.1875 C39.91720703 102.1865332 39.91720703 102.1865332 40.98046875 102.18554688 C45.16047922 102.15012306 48.83217366 101.69463772 53 101 C53 107.6 53 114.2 53 121 C39.7950074 124.77285503 25.29028229 125.58734768 12.4375 119.875 C6.49459487 116.5030688 2.99550883 112.14266226 0.93994141 105.65356445 C-0.45303312 99.88024448 -0.24778672 94.09328126 -0.1953125 88.1875 C-0.1924826 86.97803711 -0.18965271 85.76857422 -0.18673706 84.52246094 C-0.17559396 80.68153752 -0.15049983 76.84085225 -0.125 73 C-0.11496263 70.38672213 -0.1058381 67.77344059 -0.09765625 65.16015625 C-0.07567379 58.77334655 -0.04118416 52.38671358 0 46 C-5.94 46 -11.88 46 -18 46 C-18 39.4 -18 32.8 -18 26 C-12.06 26 -6.12 26 0 26 C0 17.42 0 8.84 0 0 Z " fill="#FFFFFF" transform="translate(524,39)"/>
<path d="M0 0 C2.578125 0.020625 5.15625 0.04125 7.8125 0.0625 C7.8125 7.3225 7.8125 14.5825 7.8125 22.0625 C5.894375 22.145 3.97625 22.2275 2 22.3125 C-6.94305743 23.00417438 -15.10475754 25.43262779 -22.1875 31.0625 C-24.53658982 34.58613473 -24.45711726 36.10169775 -24.50634766 40.27807617 C-24.52621735 41.5591777 -24.54608704 42.84027924 -24.56655884 44.16020203 C-24.57843527 45.55862251 -24.59009812 46.95704483 -24.6015625 48.35546875 C-24.62027261 49.78608826 -24.63984591 51.21669671 -24.6602478 52.64729309 C-24.71159183 56.41028327 -24.75120521 60.17330923 -24.78839111 63.9364624 C-24.82841664 67.77739328 -24.87951557 71.618175 -24.9296875 75.45898438 C-25.02647371 82.99339506 -25.10984611 90.52786339 -25.1875 98.0625 C-33.1075 98.0625 -41.0275 98.0625 -49.1875 98.0625 C-49.1875 66.3825 -49.1875 34.7025 -49.1875 2.0625 C-42.5875 2.0625 -35.9875 2.0625 -29.1875 2.0625 C-28.5275 4.3725 -27.8675 6.6825 -27.1875 9.0625 C-26.8575 10.0525 -26.5275 11.0425 -26.1875 12.0625 C-25.775 11.60359375 -25.3625 11.1446875 -24.9375 10.671875 C-17.65302909 2.93212466 -10.62017933 -0.11966101 0 0 Z " fill="#FFFFFF" transform="translate(181.1875,62.9375)"/>
<path d="M0 0 C6.27 0 12.54 0 19 0 C19 6.27 19 12.54 19 19 C12.73 19 6.46 19 0 19 C0 12.73 0 6.46 0 0 Z " fill="#F03024" transform="translate(1316,141)"/>
</svg>
